<svg id="Capa_1" enable-background="new 0 0 512 512" height="512" viewBox="0 0 512 512" width="512" xmlns="http://www.w3.org/2000/svg"><g><circle cx="256" cy="256" fill="#ffd300" r="256"/><g><path d="m510.346 285.08-162.545-196.597-91.787-23.126-82.728 35.393-33.942 102.5v86.877l-67.752 32.48 37.472 37.472-2.097 2.097 149.813 149.814c131.198-.392 239.155-99.474 253.566-226.91z" fill="#ff9e00"/></g><g><path d="m256.014 79.107c-53.407 0-96.857 43.45-96.857 96.857v59.786l-30 27v-86.786c0-69.949 56.908-126.857 126.857-126.857 8.557 0 6.843 30 0 30z" fill="#5a5a5a"/><g><path d="m256.014 49.107c-.005 0-.009 0-.014 0v30h.014c53.407 0 96.856 43.45 96.856 96.857v59.786l30 27v-86.786c0-69.949-56.907-126.857-126.856-126.857z" fill="#32393f"/></g><path d="m382.87 354.357h-30v47.679h-39.107v-15.857h-40.134c-9.729 0-17.616 7.887-17.616 17.616v26.482c0 9.729 7.887 17.616 17.616 17.616h40.134v-15.857h69.107z" fill="#32393f"/><circle cx="409.299" cy="303.25" fill="#3a4de1" r="36.643"/><circle cx="102.701" cy="303.25" fill="#5a69e5" r="36.643"/><path d="m189.429 370.75h-30l-10-67.5 10-67.5h30z" fill="#fff"/><path d="m159.129 370.75h-35.214c-11.716 0-21.214-9.498-21.214-21.214v-92.571c0-11.716 9.498-21.214 21.214-21.214h35.214z" fill="#9dcfff"/><path d="m322.871 370.75h30l10-67.5-10-67.5h-30z" fill="#e3eaee"/><path d="m352.871 370.75h35.214c11.716 0 21.214-9.498 21.214-21.214v-92.571c0-11.716-9.498-21.214-21.214-21.214h-35.214z" fill="#3ba9ff"/></g></g></svg>