<svg id="Capa_1" enable-background="new 0 0 512 512" height="512" viewBox="0 0 512 512" width="512" xmlns="http://www.w3.org/2000/svg"><g><circle cx="256" cy="256" fill="#9dcfff" r="256"/><g><g><g><path d="m512 256c0-12.977-.974-25.727-2.838-38.185l-148.911-148.912 14.906 101.011-57.959-57.959 14.351 73.902-15.977 22.393 2.087-8.573-37.186-37.186-15.462 19.674-48.997-48.997-16.785-9.153-4.02-11.652-22.246-22.246-47.364 48.169 26.151 139.119 47.605 47.605-.143.699-26.249 106.363-47.364 11.025 58.715 58.715c22.748 6.623 46.799 10.188 71.686 10.188 141.385 0 256-114.615 256-256z" fill="#3ba9ff"/></g></g></g><g><path d="m355.212 415.337-99.147-234.578-99.147 234.578 27.633 11.68.11-.26 1.734 2.041 69.671-59.194 69.671 59.194 1.734-2.041.11.26zm-72.545-94.58-26.603 22.602-26.603-22.602 26.603-62.94zm-83.017 70.534 21.651-51.225 19.32 16.415zm71.858-34.81 19.32-16.415 21.651 51.225z" fill="#5a5a5a"/><path d="m256.064 180.758-.064.153v77.058l.064-.152 26.603 62.94-26.603 22.602-.064-.054v26.353l.064-.055 69.671 59.194 1.734-2.041.11.26 27.633-11.68zm15.444 175.723 19.32-16.415 21.651 51.225z" fill="#32393f"/><path d="m256.418 443.097h-130.819v-30h130.819l10 15z" fill="#fff"/><circle cx="256.064" cy="181.452" fill="#ff641a" r="30.915"/><g><path d="m295.986 213.139 21.213 21.214c33.744-33.744 33.744-88.651-.001-122.396l-21.213 21.213c22.048 22.047 22.048 57.921.001 79.969z" fill="#ff9e00"/><path d="m216.015 133.168-21.213-21.213c-33.745 33.745-33.745 88.652 0 122.397l21.213-21.213c-22.048-22.048-22.048-57.923 0-79.971z" fill="#ffd300"/><path d="m339.037 256.191 21.213 21.213c57.484-57.484 57.484-151.017 0-208.501l-21.213 21.213c45.788 45.788 45.788 120.288 0 166.075z" fill="#ff9e00"/><path d="m172.963 90.116-21.213-21.213c-57.484 57.484-57.484 151.017 0 208.501l21.213-21.213c-45.788-45.787-45.788-120.287 0-166.075z" fill="#ffd300"/></g><path d="m256 413.097h131.237v30h-131.237z" fill="#e3eaee"/></g><g><g><path d="m256.064 150.537c-.022 0-.043.002-.064.002v61.827c.022 0 .043.002.064.002 17.074 0 30.915-13.841 30.915-30.915s-13.841-30.916-30.915-30.916z" fill="#ef3800"/></g></g></g></svg>